<mxfile host="app.diagrams.net" modified="2024-03-15T07:53:20.335Z" agent="Mozilla/5.0 (Windows NT 10.0; Win64; x64) AppleWebKit/537.36 (KHTML, like Gecko) Chrome/122.0.0.0 Safari/537.36 Edg/122.0.0.0" etag="eZNZHD3EERvx-9KUaost" version="24.0.6" type="github">
  <diagram name="Page-1" id="97916047-d0de-89f5-080d-49f4d83e522f">
    <mxGraphModel dx="788" dy="432" grid="0" gridSize="10" guides="1" tooltips="1" connect="1" arrows="1" fold="1" page="1" pageScale="1.5" pageWidth="1169" pageHeight="827" background="none" math="0" shadow="0">
      <root>
        <mxCell id="0" />
        <mxCell id="1" parent="0" />
        <mxCell id="2" value="VINSON.T" style="rounded=1;fillColor=#f8cecc;strokeColor=#b85450;shadow=1;fontStyle=1;fontSize=14;" parent="1" vertex="1">
          <mxGeometry x="672" y="205.5" width="200" height="60" as="geometry" />
        </mxCell>
        <mxCell id="3" value="FRANK.L" style="rounded=1;fillColor=#dae8fc;strokeColor=#6c8ebf;shadow=1;fontStyle=1;fontSize=14;" parent="1" vertex="1">
          <mxGeometry x="662" y="330" width="220" height="60" as="geometry" />
        </mxCell>
        <mxCell id="4" value="SPARK.M" style="rounded=1;fillColor=#dae8fc;strokeColor=#6c8ebf;shadow=1;fontStyle=1;fontSize=14;" parent="1" vertex="1">
          <mxGeometry x="390" y="330" width="200" height="60" as="geometry" />
        </mxCell>
        <mxCell id="5" value="FELIX.W" style="rounded=1;fillColor=#dae8fc;strokeColor=#6c8ebf;shadow=1;fontStyle=1;fontSize=14;" parent="1" vertex="1">
          <mxGeometry x="950" y="330" width="200" height="60" as="geometry" />
        </mxCell>
        <mxCell id="6" value="JEFFREY.C" style="rounded=1;fillColor=#10739E;strokeColor=none;shadow=1;gradientColor=none;fontStyle=1;fontColor=#FFFFFF;fontSize=14;rotation=0;" parent="1" vertex="1">
          <mxGeometry x="813" y="573" width="200" height="60" as="geometry" />
        </mxCell>
        <mxCell id="7" value="MORTAL.H" style="rounded=1;fillColor=#10739E;strokeColor=none;shadow=1;gradientColor=none;fontStyle=1;fontColor=#FFFFFF;fontSize=14;rotation=0;" parent="1" vertex="1">
          <mxGeometry x="813" y="417" width="200" height="60" as="geometry" />
        </mxCell>
        <mxCell id="13" value="BLAKE.Y" style="rounded=1;fillColor=#10739E;strokeColor=none;shadow=1;gradientColor=none;fontStyle=1;fontColor=#FFFFFF;fontSize=14;rotation=0;" parent="1" vertex="1">
          <mxGeometry x="813" y="496" width="200" height="60" as="geometry" />
        </mxCell>
        <mxCell id="29" value="" style="edgeStyle=elbowEdgeStyle;elbow=vertical;strokeWidth=4;endArrow=block;endFill=1;fontStyle=1;strokeColor=#23445D;" parent="1" source="2" target="3" edge="1">
          <mxGeometry x="22" y="165.5" width="100" height="100" as="geometry">
            <mxPoint x="22" y="265.5" as="sourcePoint" />
            <mxPoint x="122" y="165.5" as="targetPoint" />
          </mxGeometry>
        </mxCell>
        <mxCell id="30" value="" style="edgeStyle=elbowEdgeStyle;elbow=vertical;strokeWidth=4;endArrow=block;endFill=1;fontStyle=1;strokeColor=#23445D;exitX=0.5;exitY=1;exitDx=0;exitDy=0;" parent="1" source="2" target="5" edge="1">
          <mxGeometry x="22" y="165.5" width="100" height="100" as="geometry">
            <mxPoint x="770" y="270" as="sourcePoint" />
            <mxPoint x="122" y="165.5" as="targetPoint" />
          </mxGeometry>
        </mxCell>
        <mxCell id="31" value="" style="edgeStyle=elbowEdgeStyle;elbow=vertical;strokeWidth=4;endArrow=block;endFill=1;fontStyle=1;strokeColor=#23445D;exitX=0.5;exitY=1;exitDx=0;exitDy=0;" parent="1" source="2" target="4" edge="1">
          <mxGeometry x="22" y="165.5" width="100" height="100" as="geometry">
            <mxPoint x="770" y="270" as="sourcePoint" />
            <mxPoint x="122" y="165.5" as="targetPoint" />
          </mxGeometry>
        </mxCell>
        <mxCell id="32" value="" style="edgeStyle=elbowEdgeStyle;elbow=vertical;strokeWidth=4;endArrow=block;endFill=1;fontStyle=1;strokeColor=#23445D;entryX=0;entryY=0.5;entryDx=0;entryDy=0;exitX=0.5;exitY=1;exitDx=0;exitDy=0;" parent="1" source="3" target="6" edge="1">
          <mxGeometry x="22" y="165.5" width="100" height="100" as="geometry">
            <mxPoint x="22" y="265.5" as="sourcePoint" />
            <mxPoint x="122" y="165.5" as="targetPoint" />
            <Array as="points">
              <mxPoint x="793" y="603" />
            </Array>
          </mxGeometry>
        </mxCell>
        <mxCell id="33" value="" style="edgeStyle=elbowEdgeStyle;elbow=vertical;strokeWidth=4;endArrow=block;endFill=1;fontStyle=1;dashed=1;strokeColor=#23445D;exitX=0.5;exitY=1;exitDx=0;exitDy=0;entryX=0;entryY=0.5;entryDx=0;entryDy=0;" parent="1" source="3" target="7" edge="1">
          <mxGeometry x="22" y="165.5" width="100" height="100" as="geometry">
            <mxPoint x="770" y="390" as="sourcePoint" />
            <mxPoint x="1200" y="470" as="targetPoint" />
            <Array as="points">
              <mxPoint x="795" y="447" />
            </Array>
          </mxGeometry>
        </mxCell>
        <mxCell id="54" value="" style="edgeStyle=elbowEdgeStyle;elbow=vertical;strokeWidth=4;endArrow=block;endFill=1;fontStyle=1;strokeColor=#23445D;exitX=0.5;exitY=1;exitDx=0;exitDy=0;" parent="1" source="3" edge="1">
          <mxGeometry x="22" y="165.5" width="100" height="100" as="geometry">
            <mxPoint x="765" y="397" as="sourcePoint" />
            <mxPoint x="819" y="527" as="targetPoint" />
            <Array as="points">
              <mxPoint x="785" y="527" />
            </Array>
          </mxGeometry>
        </mxCell>
      </root>
    </mxGraphModel>
  </diagram>
</mxfile>
